solid Untitled-56091793
facet normal 0.3885202665359418 0.9214401784656674 0.0
  outer loop
    vertex 33.826642459938064 31.944676448687964 46.00000000000001
    vertex 34.07813587491455 31.83863561076683 2.8199664825478975e-15
    vertex 33.826642459938064 31.944676448687964 2.8199664825478975e-15
  endloop
endfacet
facet normal 0.3885202665359418 0.9214401784656674 0.0
  outer loop
    vertex 34.07813587491455 31.83863561076683 2.8199664825478975e-15
    vertex 33.826642459938064 31.944676448687964 46.00000000000001
    vertex 34.07813587491455 31.83863561076683 46.00000000000001
  endloop
endfacet
facet normal 0.242047893850648 0.9702643026940988 0.0
  outer loop
    vertex 33.561823225204186 32.01073982733695 46.00000000000001
    vertex 33.826642459938064 31.944676448687964 2.8199664825478975e-15
    vertex 33.561823225204186 32.01073982733695 2.8199664825478975e-15
  endloop
endfacet
facet normal 0.242047893850648 0.9702643026940988 0.0
  outer loop
    vertex 33.826642459938064 31.944676448687964 2.8199664825478975e-15
    vertex 33.561823225204186 32.01073982733695 46.00000000000001
    vertex 33.826642459938064 31.944676448687964 46.00000000000001
  endloop
endfacet
facet normal 0.9702643026941036 0.24204789385062855 0.0
  outer loop
    vertex 34.944676448687964 30.826642459938064 2.8199664825478975e-15
    vertex 35.01073982733694 30.56182322520419 46.00000000000001
    vertex 35.01073982733694 30.56182322520419 2.8199664825478975e-15
  endloop
endfacet
facet normal 0.9702643026941036 0.24204789385062855 0.0
  outer loop
    vertex 35.01073982733694 30.56182322520419 46.00000000000001
    vertex 34.944676448687964 30.826642459938064 2.8199664825478975e-15
    vertex 34.944676448687964 30.826642459938064 46.00000000000001
  endloop
endfacet
facet normal 0.6504096051773643 0.7595836658940379 0.0
  outer loop
    vertex 34.31030838241384 31.695145109878982 46.00000000000001
    vertex 34.51762546556312 31.51762546556312 2.8199664825478975e-15
    vertex 34.31030838241384 31.695145109878982 2.8199664825478975e-15
  endloop
endfacet
facet normal 0.6504096051773643 0.7595836658940379 0.0
  outer loop
    vertex 34.51762546556312 31.51762546556312 2.8199664825478975e-15
    vertex 34.31030838241384 31.695145109878982 46.00000000000001
    vertex 34.51762546556312 31.51762546556312 46.00000000000001
  endloop
endfacet
facet normal 0.5257311121191287 0.850650808352043 0.0
  outer loop
    vertex 34.07813587491455 31.83863561076683 46.00000000000001
    vertex 34.31030838241384 31.695145109878982 2.8199664825478975e-15
    vertex 34.07813587491455 31.83863561076683 2.8199664825478975e-15
  endloop
endfacet
facet normal 0.5257311121191287 0.850650808352043 0.0
  outer loop
    vertex 34.31030838241384 31.695145109878982 2.8199664825478975e-15
    vertex 34.07813587491455 31.83863561076683 46.00000000000001
    vertex 34.31030838241384 31.695145109878982 46.00000000000001
  endloop
endfacet
facet normal 0.7595836658940393 0.6504096051773627 0.0
  outer loop
    vertex 34.51762546556312 31.51762546556312 2.8199664825478975e-15
    vertex 34.69514510987898 31.310308382413844 46.00000000000001
    vertex 34.69514510987898 31.310308382413844 2.8199664825478975e-15
  endloop
endfacet
facet normal 0.7595836658940393 0.6504096051773627 0.0
  outer loop
    vertex 34.69514510987898 31.310308382413844 46.00000000000001
    vertex 34.51762546556312 31.51762546556312 2.8199664825478975e-15
    vertex 34.51762546556312 31.51762546556312 46.00000000000001
  endloop
endfacet
facet normal 0.8506508083520489 0.5257311121191195 0.0
  outer loop
    vertex 34.69514510987898 31.310308382413844 2.8199664825478975e-15
    vertex 34.83863561076682 31.07813587491455 46.00000000000001
    vertex 34.83863561076682 31.07813587491455 2.8199664825478975e-15
  endloop
endfacet
facet normal 0.8506508083520489 0.5257311121191195 0.0
  outer loop
    vertex 34.83863561076682 31.07813587491455 46.00000000000001
    vertex 34.69514510987898 31.310308382413844 2.8199664825478975e-15
    vertex 34.69514510987898 31.310308382413844 46.00000000000001
  endloop
endfacet
facet normal 0.92144017846566 0.3885202665359593 0.0
  outer loop
    vertex 34.83863561076682 31.07813587491455 2.8199664825478975e-15
    vertex 34.944676448687964 30.826642459938064 46.00000000000001
    vertex 34.944676448687964 30.826642459938064 2.8199664825478975e-15
  endloop
endfacet
facet normal 0.92144017846566 0.3885202665359593 0.0
  outer loop
    vertex 34.944676448687964 30.826642459938064 46.00000000000001
    vertex 34.83863561076682 31.07813587491455 2.8199664825478975e-15
    vertex 34.83863561076682 31.07813587491455 46.00000000000001
  endloop
endfacet
facet normal 0.0 0.0 1.0
  outer loop
    vertex 2.0176254655631185 2.0176254655631185 46.00000000000001
    vertex 0.017625465563118618 30.01762546556311 46.00000000000001
    vertex 0.017625465563118618 2.0176254655631194 46.00000000000001
  endloop
endfacet
facet normal 0.0 0.0 1.0
  outer loop
    vertex 0.017625465563118618 30.01762546556311 46.00000000000001
    vertex 2.0176254655631185 2.0176254655631185 46.00000000000001
    vertex 2.0176254655631185 30.01762546556311 46.00000000000001
  endloop
endfacet
facet normal 0.0 0.0 1.0
  outer loop
    vertex 0.017625465563118618 1.5497906040214933 46.00000000000001
    vertex 0.017625465563118618 2.0176254655631194 46.00000000000001
    vertex 0.0 1.7452600124541837 46.00000000000001
  endloop
endfacet
facet normal 0.0 0.0 1.0
  outer loop
    vertex 0.017625465563118618 2.0176254655631194 46.00000000000001
    vertex 0.017625465563118618 1.5497906040214933 46.00000000000001
    vertex 0.02451110378929275 1.473427705922044 46.00000000000001
  endloop
endfacet
facet normal 0.0 0.0 1.0
  outer loop
    vertex 0.017625465563118618 2.0176254655631194 46.00000000000001
    vertex 0.02451110378929275 1.473427705922044 46.00000000000001
    vertex 2.0176254655631185 2.0176254655631185 46.00000000000001
  endloop
endfacet
facet normal 0.0 0.0 1.0
  outer loop
    vertex 2.0176254655631185 2.0176254655631185 46.00000000000001
    vertex 0.02451110378929275 1.473427705922044 46.00000000000001
    vertex 0.09057448243827629 1.208608471188172 46.00000000000001
  endloop
endfacet
facet normal 0.0 0.0 1.0
  outer loop
    vertex 2.0176254655631185 2.0176254655631185 46.00000000000001
    vertex 0.09057448243827629 1.208608471188172 46.00000000000001
    vertex 0.19661532035941248 0.9571150562116844 46.00000000000001
  endloop
endfacet
facet normal 0.0 0.0 1.0
  outer loop
    vertex 2.0176254655631185 2.0176254655631185 46.00000000000001
    vertex 0.19661532035941248 0.9571150562116844 46.00000000000001
    vertex 0.340105821247262 0.7249425487123967 46.00000000000001
  endloop
endfacet
facet normal 0.0 0.0 1.0
  outer loop
    vertex 2.0176254655631185 2.0176254655631185 46.00000000000001
    vertex 0.340105821247262 0.7249425487123967 46.00000000000001
    vertex 0.5176254655631181 0.5176254655631191 46.00000000000001
  endloop
endfacet
facet normal 0.0 0.0 1.0
  outer loop
    vertex 2.0176254655631185 2.0176254655631185 46.00000000000001
    vertex 0.5176254655631181 0.5176254655631191 46.00000000000001
    vertex 0.7249425487123955 0.3401058212472624 46.00000000000001
  endloop
endfacet
facet normal 0.0 0.0 1.0
  outer loop
    vertex 2.0176254655631185 2.0176254655631185 46.00000000000001
    vertex 0.7249425487123955 0.3401058212472624 46.00000000000001
    vertex 0.9571150562116829 0.19661532035941337 46.00000000000001
  endloop
endfacet
facet normal 0.0 0.0 1.0
  outer loop
    vertex 2.0176254655631185 2.0176254655631185 46.00000000000001
    vertex 0.9571150562116829 0.19661532035941337 46.00000000000001
    vertex 1.2086084711881706 0.090574482438277 46.00000000000001
  endloop
endfacet
facet normal 0.0 0.0 1.0
  outer loop
    vertex 2.0176254655631185 2.0176254655631185 46.00000000000001
    vertex 1.2086084711881706 0.090574482438277 46.00000000000001
    vertex 1.4734277059220424 0.0245111037892931 46.00000000000001
  endloop
endfacet
facet normal 0.0 0.0 1.0
  outer loop
    vertex 2.0176254655631185 2.0176254655631185 46.00000000000001
    vertex 1.4734277059220424 0.0245111037892931 46.00000000000001
    vertex 1.5497906040214944 0.017625465563118618 46.00000000000001
  endloop
endfacet
facet normal 0.0 0.0 1.0
  outer loop
    vertex 2.0176254655631185 2.0176254655631185 46.00000000000001
    vertex 1.5497906040214944 0.017625465563118618 46.00000000000001
    vertex 1.7452600124541817 0.0 46.00000000000001
  endloop
endfacet
facet normal 0.0 0.0 1.0
  outer loop
    vertex 2.0176254655631185 2.0176254655631185 46.00000000000001
    vertex 1.7452600124541817 0.0 46.00000000000001
    vertex 2.0176254655631185 0.017625465563118618 46.00000000000001
  endloop
endfacet
facet normal 9.2496452121638e-17 -1.0019434245298891e-17 -1.0
  outer loop
    vertex 33.561823225204186 32.01073982733695 2.8199664825478975e-15
    vertex 2.0176254655631185 30.01762546556311 2.8199664825478975e-15
    vertex 1.473427705922044 32.01073982733694 5.639932965095795e-15
  endloop
endfacet
facet normal 9.2496452121638e-17 -1.0019434245298891e-17 -1.0
  outer loop
    vertex 2.0176254655631185 30.01762546556311 2.8199664825478975e-15
    vertex 33.561823225204186 32.01073982733695 2.8199664825478975e-15
    vertex 33.017625465563114 30.01762546556311 2.8199664825478975e-15
  endloop
endfacet
facet normal 9.2496452121638e-17 -1.0019434245298891e-17 -1.0
  outer loop
    vertex 33.017625465563114 30.01762546556311 2.8199664825478975e-15
    vertex 33.561823225204186 32.01073982733695 2.8199664825478975e-15
    vertex 33.017625465563114 2.0176254655631176 2.8199664825478975e-15
  endloop
endfacet
facet normal 9.2496452121638e-17 -1.0019434245298891e-17 -1.0
  outer loop
    vertex 33.017625465563114 2.0176254655631176 2.8199664825478975e-15
    vertex 33.561823225204186 32.01073982733695 2.8199664825478975e-15
    vertex 33.561823225204186 0.0245111037892931 5.639932965095795e-15
  endloop
endfacet
facet normal 9.2496452121638e-17 -1.0019434245298891e-17 -1.0
  outer loop
    vertex 33.561823225204186 0.0245111037892931 5.639932965095795e-15
    vertex 33.561823225204186 32.01073982733695 2.8199664825478975e-15
    vertex 33.82664245993806 0.09057448243827629 5.639932965095795e-15
  endloop
endfacet
facet normal 9.2496452121638e-17 -1.0019434245298891e-17 -1.0
  outer loop
    vertex 33.82664245993806 0.09057448243827629 5.639932965095795e-15
    vertex 33.561823225204186 32.01073982733695 2.8199664825478975e-15
    vertex 33.826642459938064 31.944676448687964 2.8199664825478975e-15
  endloop
endfacet
facet normal 9.2496452121638e-17 -1.0019434245298891e-17 -1.0
  outer loop
    vertex 33.82664245993806 0.09057448243827629 5.639932965095795e-15
    vertex 33.826642459938064 31.944676448687964 2.8199664825478975e-15
    vertex 34.078135874914544 0.19661532035941248 5.639932965095795e-15
  endloop
endfacet
facet normal 9.2496452121638e-17 -1.0019434245298891e-17 -1.0
  outer loop
    vertex 34.078135874914544 0.19661532035941248 5.639932965095795e-15
    vertex 33.826642459938064 31.944676448687964 2.8199664825478975e-15
    vertex 34.07813587491455 31.83863561076683 2.8199664825478975e-15
  endloop
endfacet
facet normal 9.2496452121638e-17 -1.0019434245298891e-17 -1.0
  outer loop
    vertex 34.078135874914544 0.19661532035941248 5.639932965095795e-15
    vertex 34.07813587491455 31.83863561076683 2.8199664825478975e-15
    vertex 34.31030838241383 0.3401058212472617 5.639932965095795e-15
  endloop
endfacet
facet normal 9.2496452121638e-17 -1.0019434245298891e-17 -1.0
  outer loop
    vertex 34.31030838241383 0.3401058212472617 5.639932965095795e-15
    vertex 34.07813587491455 31.83863561076683 2.8199664825478975e-15
    vertex 34.31030838241384 31.695145109878982 2.8199664825478975e-15
  endloop
endfacet
facet normal 9.2496452121638e-17 -1.0019434245298891e-17 -1.0
  outer loop
    vertex 34.31030838241383 0.3401058212472617 5.639932965095795e-15
    vertex 34.31030838241384 31.695145109878982 2.8199664825478975e-15
    vertex 34.51762546556311 0.5176254655631183 5.639932965095795e-15
  endloop
endfacet
facet normal 9.2496452121638e-17 -1.0019434245298891e-17 -1.0
  outer loop
    vertex 34.51762546556311 0.5176254655631183 5.639932965095795e-15
    vertex 34.31030838241384 31.695145109878982 2.8199664825478975e-15
    vertex 34.51762546556312 31.51762546556312 2.8199664825478975e-15
  endloop
endfacet
facet normal 9.2496452121638e-17 -1.0019434245298891e-17 -1.0
  outer loop
    vertex 34.51762546556311 0.5176254655631183 5.639932965095795e-15
    vertex 34.51762546556312 31.51762546556312 2.8199664825478975e-15
    vertex 34.69514510987897 0.7249425487123954 5.639932965095795e-15
  endloop
endfacet
facet normal 9.2496452121638e-17 -1.0019434245298891e-17 -1.0
  outer loop
    vertex 34.69514510987897 0.7249425487123954 5.639932965095795e-15
    vertex 34.51762546556312 31.51762546556312 2.8199664825478975e-15
    vertex 34.69514510987898 31.310308382413844 2.8199664825478975e-15
  endloop
endfacet
facet normal 9.2496452121638e-17 -1.0019434245298891e-17 -1.0
  outer loop
    vertex 34.69514510987897 0.7249425487123954 5.639932965095795e-15
    vertex 34.69514510987898 31.310308382413844 2.8199664825478975e-15
    vertex 34.838635610766815 0.9571150562116827 5.639932965095795e-15
  endloop
endfacet
facet normal 9.2496452121638e-17 -1.0019434245298891e-17 -1.0
  outer loop
    vertex 34.838635610766815 0.9571150562116827 5.639932965095795e-15
    vertex 34.69514510987898 31.310308382413844 2.8199664825478975e-15
    vertex 34.83863561076682 31.07813587491455 2.8199664825478975e-15
  endloop
endfacet
facet normal 9.2496452121638e-17 -1.0019434245298891e-17 -1.0
  outer loop
    vertex 34.838635610766815 0.9571150562116827 5.639932965095795e-15
    vertex 34.83863561076682 31.07813587491455 2.8199664825478975e-15
    vertex 34.94467644868795 1.2086084711881704 5.639932965095795e-15
  endloop
endfacet
facet normal 9.2496452121638e-17 -1.0019434245298891e-17 -1.0
  outer loop
    vertex 34.94467644868795 1.2086084711881704 5.639932965095795e-15
    vertex 34.83863561076682 31.07813587491455 2.8199664825478975e-15
    vertex 34.944676448687964 30.826642459938064 2.8199664825478975e-15
  endloop
endfacet
facet normal 9.2496452121638e-17 -1.0019434245298891e-17 -1.0
  outer loop
    vertex 34.94467644868795 1.2086084711881704 5.639932965095795e-15
    vertex 34.944676448687964 30.826642459938064 2.8199664825478975e-15
    vertex 35.01073982733694 1.4734277059220422 5.639932965095795e-15
  endloop
endfacet
facet normal 9.2496452121638e-17 -1.0019434245298891e-17 -1.0
  outer loop
    vertex 35.01073982733694 1.4734277059220422 5.639932965095795e-15
    vertex 34.944676448687964 30.826642459938064 2.8199664825478975e-15
    vertex 35.01073982733694 30.56182322520419 2.8199664825478975e-15
  endloop
endfacet
facet normal 9.2496452121638e-17 -1.0019434245298891e-17 -1.0
  outer loop
    vertex 0.024511103789293453 30.56182322520419 5.639932965095795e-15
    vertex 0.09057448243827629 1.208608471188172 0.0
    vertex 0.02451110378929275 1.473427705922044 0.0
  endloop
endfacet
facet normal 9.2496452121638e-17 -1.0019434245298891e-17 -1.0
  outer loop
    vertex 0.09057448243827629 1.208608471188172 0.0
    vertex 0.024511103789293453 30.56182322520419 5.639932965095795e-15
    vertex 0.090574482438277 30.826642459938057 5.639932965095795e-15
  endloop
endfacet
facet normal 9.2496452121638e-17 -1.0019434245298891e-17 -1.0
  outer loop
    vertex 0.09057448243827629 1.208608471188172 0.0
    vertex 0.090574482438277 30.826642459938057 5.639932965095795e-15
    vertex 0.19661532035941248 0.9571150562116844 0.0
  endloop
endfacet
facet normal 9.2496452121638e-17 -1.0019434245298891e-17 -1.0
  outer loop
    vertex 0.19661532035941248 0.9571150562116844 0.0
    vertex 0.090574482438277 30.826642459938057 5.639932965095795e-15
    vertex 0.19661532035941354 31.078135874914548 5.639932965095795e-15
  endloop
endfacet
facet normal 9.2496452121638e-17 -1.0019434245298891e-17 -1.0
  outer loop
    vertex 0.19661532035941248 0.9571150562116844 0.0
    vertex 0.19661532035941354 31.078135874914548 5.639932965095795e-15
    vertex 0.340105821247262 0.7249425487123967 0.0
  endloop
endfacet
facet normal 9.2496452121638e-17 -1.0019434245298891e-17 -1.0
  outer loop
    vertex 0.340105821247262 0.7249425487123967 0.0
    vertex 0.19661532035941354 31.078135874914548 5.639932965095795e-15
    vertex 0.3401058212472629 31.31030838241384 5.639932965095795e-15
  endloop
endfacet
facet normal 9.2496452121638e-17 -1.0019434245298891e-17 -1.0
  outer loop
    vertex 0.340105821247262 0.7249425487123967 0.0
    vertex 0.3401058212472629 31.31030838241384 5.639932965095795e-15
    vertex 0.5176254655631181 0.5176254655631191 0.0
  endloop
endfacet
facet normal 9.2496452121638e-17 -1.0019434245298891e-17 -1.0
  outer loop
    vertex 0.5176254655631181 0.5176254655631191 0.0
    vertex 0.3401058212472629 31.31030838241384 5.639932965095795e-15
    vertex 0.5176254655631193 31.517625465563114 5.639932965095795e-15
  endloop
endfacet
facet normal 9.2496452121638e-17 -1.0019434245298891e-17 -1.0
  outer loop
    vertex 0.5176254655631181 0.5176254655631191 0.0
    vertex 0.5176254655631193 31.517625465563114 5.639932965095795e-15
    vertex 0.7249425487123955 0.3401058212472624 0.0
  endloop
endfacet
facet normal 9.2496452121638e-17 -1.0019434245298891e-17 -1.0
  outer loop
    vertex 0.7249425487123955 0.3401058212472624 0.0
    vertex 0.5176254655631193 31.517625465563114 5.639932965095795e-15
    vertex 0.7249425487123967 31.695145109878972 5.639932965095795e-15
  endloop
endfacet
facet normal 9.2496452121638e-17 -1.0019434245298891e-17 -1.0
  outer loop
    vertex 0.7249425487123955 0.3401058212472624 0.0
    vertex 0.7249425487123967 31.695145109878972 5.639932965095795e-15
    vertex 0.9571150562116829 0.19661532035941337 0.0
  endloop
endfacet
facet normal 9.2496452121638e-17 -1.0019434245298891e-17 -1.0
  outer loop
    vertex 0.9571150562116829 0.19661532035941337 0.0
    vertex 0.7249425487123967 31.695145109878972 5.639932965095795e-15
    vertex 0.9571150562116841 31.83863561076682 5.639932965095795e-15
  endloop
endfacet
facet normal 9.2496452121638e-17 -1.0019434245298891e-17 -1.0
  outer loop
    vertex 0.9571150562116829 0.19661532035941337 0.0
    vertex 0.9571150562116841 31.83863561076682 5.639932965095795e-15
    vertex 1.2086084711881706 0.090574482438277 0.0
  endloop
endfacet
facet normal 9.2496452121638e-17 -1.0019434245298891e-17 -1.0
  outer loop
    vertex 1.2086084711881706 0.090574482438277 0.0
    vertex 0.9571150562116841 31.83863561076682 5.639932965095795e-15
    vertex 1.2086084711881717 31.944676448687957 5.639932965095795e-15
  endloop
endfacet
facet normal 9.2496452121638e-17 -1.0019434245298891e-17 -1.0
  outer loop
    vertex 1.2086084711881706 0.090574482438277 0.0
    vertex 1.2086084711881717 31.944676448687957 5.639932965095795e-15
    vertex 1.4734277059220424 0.0245111037892931 0.0
  endloop
endfacet
facet normal 9.2496452121638e-17 -1.0019434245298891e-17 -1.0
  outer loop
    vertex 1.4734277059220424 0.0245111037892931 0.0
    vertex 1.2086084711881717 31.944676448687957 5.639932965095795e-15
    vertex 1.473427705922044 32.01073982733694 5.639932965095795e-15
  endloop
endfacet
facet normal 9.2496452121638e-17 -1.0019434245298891e-17 -1.0
  outer loop
    vertex 1.4734277059220424 0.0245111037892931 0.0
    vertex 1.473427705922044 32.01073982733694 5.639932965095795e-15
    vertex 2.0176254655631185 2.0176254655631185 2.8199664825478975e-15
  endloop
endfacet
facet normal 9.2496452121638e-17 -1.0019434245298891e-17 -1.0
  outer loop
    vertex 1.4734277059220424 0.0245111037892931 0.0
    vertex 2.0176254655631185 2.0176254655631185 2.8199664825478975e-15
    vertex 33.561823225204186 0.0245111037892931 5.639932965095795e-15
  endloop
endfacet
facet normal 9.2496452121638e-17 -1.0019434245298891e-17 -1.0
  outer loop
    vertex 2.0176254655631185 2.0176254655631185 2.8199664825478975e-15
    vertex 1.473427705922044 32.01073982733694 5.639932965095795e-15
    vertex 2.0176254655631185 30.01762546556311 2.8199664825478975e-15
  endloop
endfacet
facet normal 9.2496452121638e-17 -1.0019434245298891e-17 -1.0
  outer loop
    vertex 33.561823225204186 0.0245111037892931 5.639932965095795e-15
    vertex 2.0176254655631185 2.0176254655631185 2.8199664825478975e-15
    vertex 33.017625465563114 2.0176254655631176 2.8199664825478975e-15
  endloop
endfacet
facet normal 0.9214401784656674 -0.3885202665359418 0.0
  outer loop
    vertex 34.94467644868795 1.2086084711881704 5.639932965095795e-15
    vertex 34.838635610766815 0.9571150562116827 46.00000000000001
    vertex 34.838635610766815 0.9571150562116827 5.639932965095795e-15
  endloop
endfacet
facet normal 0.9214401784656674 -0.3885202665359418 0.0
  outer loop
    vertex 34.838635610766815 0.9571150562116827 46.00000000000001
    vertex 34.94467644868795 1.2086084711881704 5.639932965095795e-15
    vertex 34.94467644868795 1.2086084711881704 46.00000000000001
  endloop
endfacet
facet normal 0.0 0.0 1.0
  outer loop
    vertex 33.017625465563114 0.017625465563118618 46.00000000000001
    vertex 2.0176254655631185 2.0176254655631185 46.00000000000001
    vertex 2.0176254655631185 0.017625465563118618 46.00000000000001
  endloop
endfacet
facet normal 0.0 0.0 1.0
  outer loop
    vertex 2.0176254655631185 2.0176254655631185 46.00000000000001
    vertex 33.017625465563114 0.017625465563118618 46.00000000000001
    vertex 33.017625465563114 2.0176254655631176 46.00000000000001
  endloop
endfacet
facet normal 0.9702643026940981 -0.2420478938506501 -6.414784809688787e-20
  outer loop
    vertex 35.01073982733694 1.4734277059220422 5.639932965095795e-15
    vertex 34.94467644868795 1.2086084711881704 46.00000000000001
    vertex 34.94467644868795 1.2086084711881704 5.639932965095795e-15
  endloop
endfacet
facet normal 0.9702643026940981 -0.2420478938506501 -6.414784809688787e-20
  outer loop
    vertex 34.94467644868795 1.2086084711881704 46.00000000000001
    vertex 35.01073982733694 1.4734277059220422 5.639932965095795e-15
    vertex 35.01073982733694 1.4734277059220422 46.00000000000001
  endloop
endfacet
facet normal 0.24204789385063827 -0.9702643026941012 0.0
  outer loop
    vertex 33.82664245993806 0.09057448243827629 46.00000000000001
    vertex 33.561823225204186 0.0245111037892931 5.639932965095795e-15
    vertex 33.82664245993806 0.09057448243827629 5.639932965095795e-15
  endloop
endfacet
facet normal 0.24204789385063827 -0.9702643026941012 0.0
  outer loop
    vertex 33.561823225204186 0.0245111037892931 5.639932965095795e-15
    vertex 33.82664245993806 0.09057448243827629 46.00000000000001
    vertex 33.561823225204186 0.0245111037892931 46.00000000000001
  endloop
endfacet
facet normal 0.0 0.0 1.0
  outer loop
    vertex 35.017625465563114 30.01762546556311 46.00000000000001
    vertex 33.017625465563114 32.017625465563114 46.00000000000001
    vertex 33.017625465563114 30.01762546556311 46.00000000000001
  endloop
endfacet
facet normal 0.0 0.0 1.0
  outer loop
    vertex 33.017625465563114 32.017625465563114 46.00000000000001
    vertex 35.017625465563114 30.01762546556311 46.00000000000001
    vertex 33.289990918672046 32.03525093112624 46.00000000000001
  endloop
endfacet
facet normal 0.0 0.0 1.0
  outer loop
    vertex 33.289990918672046 32.03525093112624 46.00000000000001
    vertex 35.017625465563114 30.01762546556311 46.00000000000001
    vertex 33.48546032710484 32.017625465563114 46.00000000000001
  endloop
endfacet
facet normal 0.0 0.0 1.0
  outer loop
    vertex 33.48546032710484 32.017625465563114 46.00000000000001
    vertex 35.017625465563114 30.01762546556311 46.00000000000001
    vertex 33.561823225204186 32.01073982733695 46.00000000000001
  endloop
endfacet
facet normal 0.0 0.0 1.0
  outer loop
    vertex 33.561823225204186 32.01073982733695 46.00000000000001
    vertex 35.017625465563114 30.01762546556311 46.00000000000001
    vertex 33.826642459938064 31.944676448687964 46.00000000000001
  endloop
endfacet
facet normal 0.0 0.0 1.0
  outer loop
    vertex 33.826642459938064 31.944676448687964 46.00000000000001
    vertex 35.017625465563114 30.01762546556311 46.00000000000001
    vertex 34.07813587491455 31.83863561076683 46.00000000000001
  endloop
endfacet
facet normal 0.0 0.0 1.0
  outer loop
    vertex 34.07813587491455 31.83863561076683 46.00000000000001
    vertex 35.017625465563114 30.01762546556311 46.00000000000001
    vertex 34.31030838241384 31.695145109878982 46.00000000000001
  endloop
endfacet
facet normal 0.0 0.0 1.0
  outer loop
    vertex 34.31030838241384 31.695145109878982 46.00000000000001
    vertex 35.017625465563114 30.01762546556311 46.00000000000001
    vertex 34.51762546556312 31.51762546556312 46.00000000000001
  endloop
endfacet
facet normal 0.0 0.0 1.0
  outer loop
    vertex 34.51762546556312 31.51762546556312 46.00000000000001
    vertex 35.017625465563114 30.01762546556311 46.00000000000001
    vertex 34.69514510987898 31.310308382413844 46.00000000000001
  endloop
endfacet
facet normal 0.0 0.0 1.0
  outer loop
    vertex 34.69514510987898 31.310308382413844 46.00000000000001
    vertex 35.017625465563114 30.01762546556311 46.00000000000001
    vertex 34.83863561076682 31.07813587491455 46.00000000000001
  endloop
endfacet
facet normal 0.0 0.0 1.0
  outer loop
    vertex 34.83863561076682 31.07813587491455 46.00000000000001
    vertex 35.017625465563114 30.01762546556311 46.00000000000001
    vertex 34.944676448687964 30.826642459938064 46.00000000000001
  endloop
endfacet
facet normal 0.0 0.0 1.0
  outer loop
    vertex 34.944676448687964 30.826642459938064 46.00000000000001
    vertex 35.017625465563114 30.01762546556311 46.00000000000001
    vertex 35.01073982733694 30.56182322520419 46.00000000000001
  endloop
endfacet
facet normal 0.0 0.0 1.0
  outer loop
    vertex 35.01073982733694 30.56182322520419 46.00000000000001
    vertex 35.017625465563114 30.01762546556311 46.00000000000001
    vertex 35.017625465563114 30.48546032710478 46.00000000000001
  endloop
endfacet
facet normal 0.0 0.0 1.0
  outer loop
    vertex 35.017625465563114 30.48546032710478 46.00000000000001
    vertex 35.017625465563114 30.01762546556311 46.00000000000001
    vertex 35.035250931126235 30.289990918672046 46.00000000000001
  endloop
endfacet
facet normal 0.0 0.0 1.0
  outer loop
    vertex 35.017625465563114 2.0176254655631176 46.00000000000001
    vertex 33.017625465563114 30.01762546556311 46.00000000000001
    vertex 33.017625465563114 2.0176254655631176 46.00000000000001
  endloop
endfacet
facet normal 0.0 0.0 1.0
  outer loop
    vertex 33.017625465563114 30.01762546556311 46.00000000000001
    vertex 35.017625465563114 2.0176254655631176 46.00000000000001
    vertex 35.017625465563114 30.01762546556311 46.00000000000001
  endloop
endfacet
facet normal 0.0 0.0 1.0
  outer loop
    vertex 33.289990918672046 0.0 46.00000000000001
    vertex 33.017625465563114 2.0176254655631176 46.00000000000001
    vertex 33.017625465563114 0.017625465563118618 46.00000000000001
  endloop
endfacet
facet normal 0.0 0.0 1.0
  outer loop
    vertex 33.017625465563114 2.0176254655631176 46.00000000000001
    vertex 33.289990918672046 0.0 46.00000000000001
    vertex 35.017625465563114 2.0176254655631176 46.00000000000001
  endloop
endfacet
facet normal 0.0 0.0 1.0
  outer loop
    vertex 35.017625465563114 2.0176254655631176 46.00000000000001
    vertex 33.289990918672046 0.0 46.00000000000001
    vertex 33.48546032710473 0.017625465563118618 46.00000000000001
  endloop
endfacet
facet normal 0.0 0.0 1.0
  outer loop
    vertex 35.017625465563114 2.0176254655631176 46.00000000000001
    vertex 33.48546032710473 0.017625465563118618 46.00000000000001
    vertex 33.561823225204186 0.0245111037892931 46.00000000000001
  endloop
endfacet
facet normal 0.0 0.0 1.0
  outer loop
    vertex 35.017625465563114 2.0176254655631176 46.00000000000001
    vertex 33.561823225204186 0.0245111037892931 46.00000000000001
    vertex 33.82664245993806 0.09057448243827629 46.00000000000001
  endloop
endfacet
facet normal 0.0 0.0 1.0
  outer loop
    vertex 35.017625465563114 2.0176254655631176 46.00000000000001
    vertex 33.82664245993806 0.09057448243827629 46.00000000000001
    vertex 34.078135874914544 0.19661532035941248 46.00000000000001
  endloop
endfacet
facet normal 0.0 0.0 1.0
  outer loop
    vertex 35.017625465563114 2.0176254655631176 46.00000000000001
    vertex 34.078135874914544 0.19661532035941248 46.00000000000001
    vertex 34.31030838241383 0.3401058212472617 46.00000000000001
  endloop
endfacet
facet normal 0.0 0.0 1.0
  outer loop
    vertex 35.017625465563114 2.0176254655631176 46.00000000000001
    vertex 34.31030838241383 0.3401058212472617 46.00000000000001
    vertex 34.51762546556311 0.5176254655631183 46.00000000000001
  endloop
endfacet
facet normal 0.0 0.0 1.0
  outer loop
    vertex 35.017625465563114 2.0176254655631176 46.00000000000001
    vertex 34.51762546556311 0.5176254655631183 46.00000000000001
    vertex 34.69514510987897 0.7249425487123954 46.00000000000001
  endloop
endfacet
facet normal 0.0 0.0 1.0
  outer loop
    vertex 35.017625465563114 2.0176254655631176 46.00000000000001
    vertex 34.69514510987897 0.7249425487123954 46.00000000000001
    vertex 34.838635610766815 0.9571150562116827 46.00000000000001
  endloop
endfacet
facet normal 0.0 0.0 1.0
  outer loop
    vertex 35.017625465563114 2.0176254655631176 46.00000000000001
    vertex 34.838635610766815 0.9571150562116827 46.00000000000001
    vertex 34.94467644868795 1.2086084711881704 46.00000000000001
  endloop
endfacet
facet normal 0.0 0.0 1.0
  outer loop
    vertex 35.017625465563114 2.0176254655631176 46.00000000000001
    vertex 34.94467644868795 1.2086084711881704 46.00000000000001
    vertex 35.01073982733694 1.4734277059220422 46.00000000000001
  endloop
endfacet
facet normal 0.0 0.0 1.0
  outer loop
    vertex 35.017625465563114 2.0176254655631176 46.00000000000001
    vertex 35.01073982733694 1.4734277059220422 46.00000000000001
    vertex 35.017625465563114 1.549790604021513 46.00000000000001
  endloop
endfacet
facet normal 0.0 0.0 1.0
  outer loop
    vertex 35.017625465563114 2.0176254655631176 46.00000000000001
    vertex 35.017625465563114 1.549790604021513 46.00000000000001
    vertex 35.03525093112623 1.7452600124541817 46.00000000000001
  endloop
endfacet
facet normal 0.0 0.0 1.0
  outer loop
    vertex 33.017625465563114 30.01762546556311 46.00000000000001
    vertex 2.0176254655631194 32.017625465563114 46.00000000000001
    vertex 2.0176254655631185 30.01762546556311 46.00000000000001
  endloop
endfacet
facet normal 0.0 0.0 1.0
  outer loop
    vertex 2.0176254655631194 32.017625465563114 46.00000000000001
    vertex 33.017625465563114 30.01762546556311 46.00000000000001
    vertex 33.017625465563114 32.017625465563114 46.00000000000001
  endloop
endfacet
facet normal 2.2741665181837887e-17 1.0 0.0
  outer loop
    vertex 2.0176254655631185 2.0176254655631185 46.00000000000001
    vertex 33.017625465563114 2.0176254655631176 2.8199664825478975e-15
    vertex 2.0176254655631185 2.0176254655631185 2.8199664825478975e-15
  endloop
endfacet
facet normal 2.2741665181837887e-17 1.0 0.0
  outer loop
    vertex 33.017625465563114 2.0176254655631176 2.8199664825478975e-15
    vertex 2.0176254655631185 2.0176254655631185 46.00000000000001
    vertex 33.017625465563114 2.0176254655631176 46.00000000000001
  endloop
endfacet
facet normal 1.0 0.0 0.0
  outer loop
    vertex 2.0176254655631185 30.01762546556311 2.8199664825478975e-15
    vertex 2.0176254655631185 2.0176254655631185 46.00000000000001
    vertex 2.0176254655631185 2.0176254655631185 2.8199664825478975e-15
  endloop
endfacet
facet normal 1.0 0.0 0.0
  outer loop
    vertex 2.0176254655631185 2.0176254655631185 46.00000000000001
    vertex 2.0176254655631185 30.01762546556311 2.8199664825478975e-15
    vertex 2.0176254655631185 30.01762546556311 46.00000000000001
  endloop
endfacet
facet normal -0.0 -1.0 -0.0
  outer loop
    vertex 33.017625465563114 30.01762546556311 46.00000000000001
    vertex 2.0176254655631185 30.01762546556311 2.8199664825478975e-15
    vertex 33.017625465563114 30.01762546556311 2.8199664825478975e-15
  endloop
endfacet
facet normal -0.0 -1.0 -0.0
  outer loop
    vertex 2.0176254655631185 30.01762546556311 2.8199664825478975e-15
    vertex 33.017625465563114 30.01762546556311 46.00000000000001
    vertex 2.0176254655631185 30.01762546556311 46.00000000000001
  endloop
endfacet
facet normal -1.0 0.0 0.0
  outer loop
    vertex 33.017625465563114 30.01762546556311 46.00000000000001
    vertex 33.017625465563114 2.0176254655631176 2.8199664825478975e-15
    vertex 33.017625465563114 2.0176254655631176 46.00000000000001
  endloop
endfacet
facet normal -1.0 0.0 0.0
  outer loop
    vertex 33.017625465563114 2.0176254655631176 2.8199664825478975e-15
    vertex 33.017625465563114 30.01762546556311 46.00000000000001
    vertex 33.017625465563114 30.01762546556311 2.8199664825478975e-15
  endloop
endfacet
facet normal -2.533696404820687e-20 -0.999999978356265 -0.00020805640985363237
  outer loop
    vertex 33.561823225204186 0.0245111037892931 5.639932965095795e-15
    vertex 1.4734277059220424 0.0245111037892931 46.00000000000001
    vertex 1.4734277059220424 0.0245111037892931 0.0
  endloop
endfacet
facet normal -2.533696404820687e-20 -0.999999978356265 -0.00020805640985363237
  outer loop
    vertex 1.4734277059220424 0.0245111037892931 46.00000000000001
    vertex 33.561823225204186 0.0245111037892931 5.639932965095795e-15
    vertex 33.561823225204186 0.0245111037892931 46.00000000000001
  endloop
endfacet
facet normal -2.533696404820687e-20 -0.999999978356265 -0.00020805640985363237
  outer loop
    vertex 1.4734277059220424 0.0245111037892931 46.00000000000001
    vertex 33.561823225204186 0.0245111037892931 46.00000000000001
    vertex 33.48546032710473 0.017625465563118618 46.00000000000001
  endloop
endfacet
facet normal -2.533696404820687e-20 -0.999999978356265 -0.00020805640985363237
  outer loop
    vertex 1.4734277059220424 0.0245111037892931 46.00000000000001
    vertex 33.48546032710473 0.017625465563118618 46.00000000000001
    vertex 33.289990918672046 0.0 46.00000000000001
  endloop
endfacet
facet normal -2.533696404820687e-20 -0.999999978356265 -0.00020805640985363237
  outer loop
    vertex 1.4734277059220424 0.0245111037892931 46.00000000000001
    vertex 33.289990918672046 0.0 46.00000000000001
    vertex 33.017625465563114 0.017625465563118618 46.00000000000001
  endloop
endfacet
facet normal -2.533696404820687e-20 -0.999999978356265 -0.00020805640985363237
  outer loop
    vertex 1.4734277059220424 0.0245111037892931 46.00000000000001
    vertex 33.017625465563114 0.017625465563118618 46.00000000000001
    vertex 2.0176254655631185 0.017625465563118618 46.00000000000001
  endloop
endfacet
facet normal -2.533696404820687e-20 -0.999999978356265 -0.00020805640985363237
  outer loop
    vertex 1.4734277059220424 0.0245111037892931 46.00000000000001
    vertex 2.0176254655631185 0.017625465563118618 46.00000000000001
    vertex 1.7452600124541817 0.0 46.00000000000001
  endloop
endfacet
facet normal -2.533696404820687e-20 -0.999999978356265 -0.00020805640985363237
  outer loop
    vertex 1.4734277059220424 0.0245111037892931 46.00000000000001
    vertex 1.7452600124541817 0.0 46.00000000000001
    vertex 1.5497906040214944 0.017625465563118618 46.00000000000001
  endloop
endfacet
facet normal 0.999999978356265 -1.1838597157077897e-16 -0.00020805640985361153
  outer loop
    vertex 35.01073982733694 30.56182322520419 2.8199664825478975e-15
    vertex 35.01073982733694 1.4734277059220422 46.00000000000001
    vertex 35.01073982733694 1.4734277059220422 5.639932965095795e-15
  endloop
endfacet
facet normal 0.999999978356265 -1.1838597157077897e-16 -0.00020805640985361153
  outer loop
    vertex 35.01073982733694 1.4734277059220422 46.00000000000001
    vertex 35.01073982733694 30.56182322520419 2.8199664825478975e-15
    vertex 35.017625465563114 1.549790604021513 46.00000000000001
  endloop
endfacet
facet normal 0.999999978356265 -1.1838597157077897e-16 -0.00020805640985361153
  outer loop
    vertex 35.017625465563114 1.549790604021513 46.00000000000001
    vertex 35.01073982733694 30.56182322520419 2.8199664825478975e-15
    vertex 35.03525093112623 1.7452600124541817 46.00000000000001
  endloop
endfacet
facet normal 0.999999978356265 -1.1838597157077897e-16 -0.00020805640985361153
  outer loop
    vertex 35.03525093112623 1.7452600124541817 46.00000000000001
    vertex 35.01073982733694 30.56182322520419 2.8199664825478975e-15
    vertex 35.017625465563114 2.0176254655631176 46.00000000000001
  endloop
endfacet
facet normal 0.999999978356265 -1.1838597157077897e-16 -0.00020805640985361153
  outer loop
    vertex 35.017625465563114 2.0176254655631176 46.00000000000001
    vertex 35.01073982733694 30.56182322520419 2.8199664825478975e-15
    vertex 35.017625465563114 30.01762546556311 46.00000000000001
  endloop
endfacet
facet normal 0.999999978356265 -1.1838597157077897e-16 -0.00020805640985361153
  outer loop
    vertex 35.017625465563114 30.01762546556311 46.00000000000001
    vertex 35.01073982733694 30.56182322520419 2.8199664825478975e-15
    vertex 35.035250931126235 30.289990918672046 46.00000000000001
  endloop
endfacet
facet normal 0.999999978356265 -1.1838597157077897e-16 -0.00020805640985361153
  outer loop
    vertex 35.035250931126235 30.289990918672046 46.00000000000001
    vertex 35.01073982733694 30.56182322520419 2.8199664825478975e-15
    vertex 35.017625465563114 30.48546032710478 46.00000000000001
  endloop
endfacet
facet normal 0.999999978356265 -1.1838597157077897e-16 -0.00020805640985361153
  outer loop
    vertex 35.017625465563114 30.48546032710478 46.00000000000001
    vertex 35.01073982733694 30.56182322520419 2.8199664825478975e-15
    vertex 35.01073982733694 30.56182322520419 46.00000000000001
  endloop
endfacet
facet normal -0.999999978356265 1.2358873560461436e-17 -0.00020805640985363159
  outer loop
    vertex 0.017625465563118618 1.5497906040214933 46.00000000000001
    vertex 0.02451110378929275 1.473427705922044 0.0
    vertex 0.02451110378929275 1.473427705922044 46.00000000000001
  endloop
endfacet
facet normal -0.999999978356265 1.2358873560461436e-17 -0.00020805640985363159
  outer loop
    vertex 0.02451110378929275 1.473427705922044 0.0
    vertex 0.017625465563118618 1.5497906040214933 46.00000000000001
    vertex 0.024511103789293453 30.56182322520419 5.639932965095795e-15
  endloop
endfacet
facet normal -0.999999978356265 1.2358873560461436e-17 -0.00020805640985363159
  outer loop
    vertex 0.024511103789293453 30.56182322520419 5.639932965095795e-15
    vertex 0.017625465563118618 1.5497906040214933 46.00000000000001
    vertex 0.0 1.7452600124541837 46.00000000000001
  endloop
endfacet
facet normal -0.999999978356265 1.2358873560461436e-17 -0.00020805640985363159
  outer loop
    vertex 0.024511103789293453 30.56182322520419 5.639932965095795e-15
    vertex 0.0 1.7452600124541837 46.00000000000001
    vertex 0.017625465563118618 2.0176254655631194 46.00000000000001
  endloop
endfacet
facet normal -0.999999978356265 1.2358873560461436e-17 -0.00020805640985363159
  outer loop
    vertex 0.024511103789293453 30.56182322520419 5.639932965095795e-15
    vertex 0.017625465563118618 2.0176254655631194 46.00000000000001
    vertex 0.017625465563118618 30.01762546556311 46.00000000000001
  endloop
endfacet
facet normal -0.999999978356265 1.2358873560461436e-17 -0.00020805640985363159
  outer loop
    vertex 0.024511103789293453 30.56182322520419 5.639932965095795e-15
    vertex 0.017625465563118618 30.01762546556311 46.00000000000001
    vertex 3.524958103184872e-16 30.289990918672046 46.00000000000001
  endloop
endfacet
facet normal -0.999999978356265 1.2358873560461436e-17 -0.00020805640985363159
  outer loop
    vertex 0.024511103789293453 30.56182322520419 5.639932965095795e-15
    vertex 3.524958103184872e-16 30.289990918672046 46.00000000000001
    vertex 0.017625465563118618 30.485460327104736 46.00000000000001
  endloop
endfacet
facet normal -0.999999978356265 1.2358873560461436e-17 -0.00020805640985363159
  outer loop
    vertex 0.024511103789293453 30.56182322520419 5.639932965095795e-15
    vertex 0.017625465563118618 30.485460327104736 46.00000000000001
    vertex 0.024511103789293453 30.56182322520419 46.00000000000001
  endloop
endfacet
facet normal 0.0 0.0 1.0
  outer loop
    vertex 0.017625465563118618 30.01762546556311 46.00000000000001
    vertex 0.017625465563118618 30.485460327104736 46.00000000000001
    vertex 3.524958103184872e-16 30.289990918672046 46.00000000000001
  endloop
endfacet
facet normal 0.0 0.0 1.0
  outer loop
    vertex 0.017625465563118618 30.485460327104736 46.00000000000001
    vertex 0.017625465563118618 30.01762546556311 46.00000000000001
    vertex 2.0176254655631185 30.01762546556311 46.00000000000001
  endloop
endfacet
facet normal 0.0 0.0 1.0
  outer loop
    vertex 0.017625465563118618 30.485460327104736 46.00000000000001
    vertex 2.0176254655631185 30.01762546556311 46.00000000000001
    vertex 0.024511103789293453 30.56182322520419 46.00000000000001
  endloop
endfacet
facet normal 0.0 0.0 1.0
  outer loop
    vertex 0.024511103789293453 30.56182322520419 46.00000000000001
    vertex 2.0176254655631185 30.01762546556311 46.00000000000001
    vertex 0.090574482438277 30.826642459938057 46.00000000000001
  endloop
endfacet
facet normal 0.0 0.0 1.0
  outer loop
    vertex 0.090574482438277 30.826642459938057 46.00000000000001
    vertex 2.0176254655631185 30.01762546556311 46.00000000000001
    vertex 0.19661532035941354 31.078135874914548 46.00000000000001
  endloop
endfacet
facet normal 0.0 0.0 1.0
  outer loop
    vertex 0.19661532035941354 31.078135874914548 46.00000000000001
    vertex 2.0176254655631185 30.01762546556311 46.00000000000001
    vertex 0.3401058212472629 31.31030838241384 46.00000000000001
  endloop
endfacet
facet normal 0.0 0.0 1.0
  outer loop
    vertex 0.3401058212472629 31.31030838241384 46.00000000000001
    vertex 2.0176254655631185 30.01762546556311 46.00000000000001
    vertex 0.5176254655631193 31.517625465563114 46.00000000000001
  endloop
endfacet
facet normal 0.0 0.0 1.0
  outer loop
    vertex 0.5176254655631193 31.517625465563114 46.00000000000001
    vertex 2.0176254655631185 30.01762546556311 46.00000000000001
    vertex 0.7249425487123967 31.695145109878972 46.00000000000001
  endloop
endfacet
facet normal 0.0 0.0 1.0
  outer loop
    vertex 0.7249425487123967 31.695145109878972 46.00000000000001
    vertex 2.0176254655631185 30.01762546556311 46.00000000000001
    vertex 0.9571150562116841 31.83863561076682 46.00000000000001
  endloop
endfacet
facet normal 0.0 0.0 1.0
  outer loop
    vertex 0.9571150562116841 31.83863561076682 46.00000000000001
    vertex 2.0176254655631185 30.01762546556311 46.00000000000001
    vertex 1.2086084711881717 31.944676448687957 46.00000000000001
  endloop
endfacet
facet normal 0.0 0.0 1.0
  outer loop
    vertex 1.2086084711881717 31.944676448687957 46.00000000000001
    vertex 2.0176254655631185 30.01762546556311 46.00000000000001
    vertex 1.473427705922044 32.01073982733694 46.00000000000001
  endloop
endfacet
facet normal 0.0 0.0 1.0
  outer loop
    vertex 1.473427705922044 32.01073982733694 46.00000000000001
    vertex 2.0176254655631185 30.01762546556311 46.00000000000001
    vertex 1.5497906040214524 32.017625465563114 46.00000000000001
  endloop
endfacet
facet normal 0.0 0.0 1.0
  outer loop
    vertex 1.5497906040214524 32.017625465563114 46.00000000000001
    vertex 2.0176254655631185 30.01762546556311 46.00000000000001
    vertex 1.7452600124541837 32.035250931126235 46.00000000000001
  endloop
endfacet
facet normal 0.0 0.0 1.0
  outer loop
    vertex 1.7452600124541837 32.035250931126235 46.00000000000001
    vertex 2.0176254655631185 30.01762546556311 46.00000000000001
    vertex 2.0176254655631194 32.017625465563114 46.00000000000001
  endloop
endfacet
facet normal -1.071384678833224e-16 0.999999978356265 -0.0002080564098535502
  outer loop
    vertex 1.473427705922044 32.01073982733694 5.639932965095795e-15
    vertex 33.561823225204186 32.01073982733695 46.00000000000001
    vertex 33.561823225204186 32.01073982733695 2.8199664825478975e-15
  endloop
endfacet
facet normal -1.071384678833224e-16 0.999999978356265 -0.0002080564098535502
  outer loop
    vertex 33.561823225204186 32.01073982733695 46.00000000000001
    vertex 1.473427705922044 32.01073982733694 5.639932965095795e-15
    vertex 1.473427705922044 32.01073982733694 46.00000000000001
  endloop
endfacet
facet normal -1.071384678833224e-16 0.999999978356265 -0.0002080564098535502
  outer loop
    vertex 33.561823225204186 32.01073982733695 46.00000000000001
    vertex 1.473427705922044 32.01073982733694 46.00000000000001
    vertex 1.5497906040214524 32.017625465563114 46.00000000000001
  endloop
endfacet
facet normal -1.071384678833224e-16 0.999999978356265 -0.0002080564098535502
  outer loop
    vertex 33.561823225204186 32.01073982733695 46.00000000000001
    vertex 1.5497906040214524 32.017625465563114 46.00000000000001
    vertex 1.7452600124541837 32.035250931126235 46.00000000000001
  endloop
endfacet
facet normal -1.071384678833224e-16 0.999999978356265 -0.0002080564098535502
  outer loop
    vertex 33.561823225204186 32.01073982733695 46.00000000000001
    vertex 1.7452600124541837 32.035250931126235 46.00000000000001
    vertex 2.0176254655631194 32.017625465563114 46.00000000000001
  endloop
endfacet
facet normal -1.071384678833224e-16 0.999999978356265 -0.0002080564098535502
  outer loop
    vertex 33.561823225204186 32.01073982733695 46.00000000000001
    vertex 2.0176254655631194 32.017625465563114 46.00000000000001
    vertex 33.017625465563114 32.017625465563114 46.00000000000001
  endloop
endfacet
facet normal -1.071384678833224e-16 0.999999978356265 -0.0002080564098535502
  outer loop
    vertex 33.561823225204186 32.01073982733695 46.00000000000001
    vertex 33.017625465563114 32.017625465563114 46.00000000000001
    vertex 33.289990918672046 32.03525093112624 46.00000000000001
  endloop
endfacet
facet normal -1.071384678833224e-16 0.999999978356265 -0.0002080564098535502
  outer loop
    vertex 33.561823225204186 32.01073982733695 46.00000000000001
    vertex 33.289990918672046 32.03525093112624 46.00000000000001
    vertex 33.48546032710484 32.017625465563114 46.00000000000001
  endloop
endfacet
facet normal -0.9702643026941002 -0.24204789385064124 0.0
  outer loop
    vertex 0.02451110378929275 1.473427705922044 46.00000000000001
    vertex 0.09057448243827629 1.208608471188172 0.0
    vertex 0.09057448243827629 1.208608471188172 46.00000000000001
  endloop
endfacet
facet normal -0.9702643026941002 -0.24204789385064124 0.0
  outer loop
    vertex 0.09057448243827629 1.208608471188172 0.0
    vertex 0.02451110378929275 1.473427705922044 46.00000000000001
    vertex 0.02451110378929275 1.473427705922044 0.0
  endloop
endfacet
facet normal -0.9702643026940996 0.24204789385064424 6.401081224482273e-20
  outer loop
    vertex 0.090574482438277 30.826642459938057 46.00000000000001
    vertex 0.024511103789293453 30.56182322520419 5.639932965095795e-15
    vertex 0.024511103789293453 30.56182322520419 46.00000000000001
  endloop
endfacet
facet normal -0.9702643026940996 0.24204789385064424 6.401081224482273e-20
  outer loop
    vertex 0.024511103789293453 30.56182322520419 5.639932965095795e-15
    vertex 0.090574482438277 30.826642459938057 46.00000000000001
    vertex 0.090574482438277 30.826642459938057 5.639932965095795e-15
  endloop
endfacet
facet normal 0.8506508083520435 -0.5257311121191278 0.0
  outer loop
    vertex 34.838635610766815 0.9571150562116827 5.639932965095795e-15
    vertex 34.69514510987897 0.7249425487123954 46.00000000000001
    vertex 34.69514510987897 0.7249425487123954 5.639932965095795e-15
  endloop
endfacet
facet normal 0.8506508083520435 -0.5257311121191278 0.0
  outer loop
    vertex 34.69514510987897 0.7249425487123954 46.00000000000001
    vertex 34.838635610766815 0.9571150562116827 5.639932965095795e-15
    vertex 34.838635610766815 0.9571150562116827 46.00000000000001
  endloop
endfacet
facet normal 0.75958366589403 -0.6504096051773732 0.0
  outer loop
    vertex 34.69514510987897 0.7249425487123954 5.639932965095795e-15
    vertex 34.51762546556311 0.5176254655631183 46.00000000000001
    vertex 34.51762546556311 0.5176254655631183 5.639932965095795e-15
  endloop
endfacet
facet normal 0.75958366589403 -0.6504096051773732 0.0
  outer loop
    vertex 34.51762546556311 0.5176254655631183 46.00000000000001
    vertex 34.69514510987897 0.7249425487123954 5.639932965095795e-15
    vertex 34.69514510987897 0.7249425487123954 46.00000000000001
  endloop
endfacet
facet normal 0.6504096051773652 -0.7595836658940369 0.0
  outer loop
    vertex 34.51762546556311 0.5176254655631183 46.00000000000001
    vertex 34.31030838241383 0.3401058212472617 5.639932965095795e-15
    vertex 34.51762546556311 0.5176254655631183 5.639932965095795e-15
  endloop
endfacet
facet normal 0.6504096051773652 -0.7595836658940369 0.0
  outer loop
    vertex 34.31030838241383 0.3401058212472617 5.639932965095795e-15
    vertex 34.51762546556311 0.5176254655631183 46.00000000000001
    vertex 34.31030838241383 0.3401058212472617 46.00000000000001
  endloop
endfacet
facet normal 0.5257311121191338 -0.8506508083520398 0.0
  outer loop
    vertex 34.31030838241383 0.3401058212472617 46.00000000000001
    vertex 34.078135874914544 0.19661532035941248 5.639932965095795e-15
    vertex 34.31030838241383 0.3401058212472617 5.639932965095795e-15
  endloop
endfacet
facet normal 0.5257311121191338 -0.8506508083520398 0.0
  outer loop
    vertex 34.078135874914544 0.19661532035941248 5.639932965095795e-15
    vertex 34.31030838241383 0.3401058212472617 46.00000000000001
    vertex 34.078135874914544 0.19661532035941248 46.00000000000001
  endloop
endfacet
facet normal 0.3885202665359467 -0.9214401784656653 0.0
  outer loop
    vertex 34.078135874914544 0.19661532035941248 46.00000000000001
    vertex 33.82664245993806 0.09057448243827629 5.639932965095795e-15
    vertex 34.078135874914544 0.19661532035941248 5.639932965095795e-15
  endloop
endfacet
facet normal 0.3885202665359467 -0.9214401784656653 0.0
  outer loop
    vertex 33.82664245993806 0.09057448243827629 5.639932965095795e-15
    vertex 34.078135874914544 0.19661532035941248 46.00000000000001
    vertex 33.82664245993806 0.09057448243827629 46.00000000000001
  endloop
endfacet
facet normal -0.9214401784656648 0.3885202665359478 0.0
  outer loop
    vertex 0.19661532035941354 31.078135874914548 46.00000000000001
    vertex 0.090574482438277 30.826642459938057 5.639932965095795e-15
    vertex 0.090574482438277 30.826642459938057 46.00000000000001
  endloop
endfacet
facet normal -0.9214401784656648 0.3885202665359478 0.0
  outer loop
    vertex 0.090574482438277 30.826642459938057 5.639932965095795e-15
    vertex 0.19661532035941354 31.078135874914548 46.00000000000001
    vertex 0.19661532035941354 31.078135874914548 5.639932965095795e-15
  endloop
endfacet
facet normal -0.8506508083520452 0.525731112119125 0.0
  outer loop
    vertex 0.3401058212472629 31.31030838241384 46.00000000000001
    vertex 0.19661532035941354 31.078135874914548 5.639932965095795e-15
    vertex 0.19661532035941354 31.078135874914548 46.00000000000001
  endloop
endfacet
facet normal -0.8506508083520452 0.525731112119125 0.0
  outer loop
    vertex 0.19661532035941354 31.078135874914548 5.639932965095795e-15
    vertex 0.3401058212472629 31.31030838241384 46.00000000000001
    vertex 0.3401058212472629 31.31030838241384 5.639932965095795e-15
  endloop
endfacet
facet normal -0.7595836658940374 0.6504096051773648 0.0
  outer loop
    vertex 0.5176254655631193 31.517625465563114 46.00000000000001
    vertex 0.3401058212472629 31.31030838241384 5.639932965095795e-15
    vertex 0.3401058212472629 31.31030838241384 46.00000000000001
  endloop
endfacet
facet normal -0.7595836658940374 0.6504096051773648 0.0
  outer loop
    vertex 0.3401058212472629 31.31030838241384 5.639932965095795e-15
    vertex 0.5176254655631193 31.517625465563114 46.00000000000001
    vertex 0.5176254655631193 31.517625465563114 5.639932965095795e-15
  endloop
endfacet
facet normal -0.6504096051773607 0.7595836658940408 0.0
  outer loop
    vertex 0.5176254655631193 31.517625465563114 46.00000000000001
    vertex 0.7249425487123967 31.695145109878972 5.639932965095795e-15
    vertex 0.5176254655631193 31.517625465563114 5.639932965095795e-15
  endloop
endfacet
facet normal -0.6504096051773607 0.7595836658940408 0.0
  outer loop
    vertex 0.7249425487123967 31.695145109878972 5.639932965095795e-15
    vertex 0.5176254655631193 31.517625465563114 46.00000000000001
    vertex 0.7249425487123967 31.695145109878972 46.00000000000001
  endloop
endfacet
facet normal -0.5257311121191278 0.8506508083520435 0.0
  outer loop
    vertex 0.7249425487123967 31.695145109878972 46.00000000000001
    vertex 0.9571150562116841 31.83863561076682 5.639932965095795e-15
    vertex 0.7249425487123967 31.695145109878972 5.639932965095795e-15
  endloop
endfacet
facet normal -0.5257311121191278 0.8506508083520435 0.0
  outer loop
    vertex 0.9571150562116841 31.83863561076682 5.639932965095795e-15
    vertex 0.7249425487123967 31.695145109878972 46.00000000000001
    vertex 0.9571150562116841 31.83863561076682 46.00000000000001
  endloop
endfacet
facet normal -0.3885202665359593 0.92144017846566 0.0
  outer loop
    vertex 0.9571150562116841 31.83863561076682 46.00000000000001
    vertex 1.2086084711881717 31.944676448687957 5.639932965095795e-15
    vertex 0.9571150562116841 31.83863561076682 5.639932965095795e-15
  endloop
endfacet
facet normal -0.3885202665359593 0.92144017846566 0.0
  outer loop
    vertex 1.2086084711881717 31.944676448687957 5.639932965095795e-15
    vertex 0.9571150562116841 31.83863561076682 46.00000000000001
    vertex 1.2086084711881717 31.944676448687957 46.00000000000001
  endloop
endfacet
facet normal -0.24204789385064962 0.9702643026940984 -1.281586603417103e-19
  outer loop
    vertex 1.2086084711881717 31.944676448687957 46.00000000000001
    vertex 1.473427705922044 32.01073982733694 5.639932965095795e-15
    vertex 1.2086084711881717 31.944676448687957 5.639932965095795e-15
  endloop
endfacet
facet normal -0.24204789385064962 0.9702643026940984 -1.281586603417103e-19
  outer loop
    vertex 1.473427705922044 32.01073982733694 5.639932965095795e-15
    vertex 1.2086084711881717 31.944676448687957 46.00000000000001
    vertex 1.473427705922044 32.01073982733694 46.00000000000001
  endloop
endfacet
facet normal -0.24204789385064263 -0.9702643026941 -6.401081224482041e-20
  outer loop
    vertex 1.4734277059220424 0.0245111037892931 46.00000000000001
    vertex 1.2086084711881706 0.090574482438277 0.0
    vertex 1.4734277059220424 0.0245111037892931 0.0
  endloop
endfacet
facet normal -0.24204789385064263 -0.9702643026941 -6.401081224482041e-20
  outer loop
    vertex 1.2086084711881706 0.090574482438277 0.0
    vertex 1.4734277059220424 0.0245111037892931 46.00000000000001
    vertex 1.2086084711881706 0.090574482438277 46.00000000000001
  endloop
endfacet
facet normal -0.38852026653594723 -0.921440178465665 -0.0
  outer loop
    vertex 1.2086084711881706 0.090574482438277 46.00000000000001
    vertex 0.9571150562116829 0.19661532035941337 0.0
    vertex 1.2086084711881706 0.090574482438277 0.0
  endloop
endfacet
facet normal -0.38852026653594723 -0.921440178465665 -0.0
  outer loop
    vertex 0.9571150562116829 0.19661532035941337 0.0
    vertex 1.2086084711881706 0.090574482438277 46.00000000000001
    vertex 0.9571150562116829 0.19661532035941337 46.00000000000001
  endloop
endfacet
facet normal -0.5257311121191325 -0.8506508083520407 -0.0
  outer loop
    vertex 0.9571150562116829 0.19661532035941337 46.00000000000001
    vertex 0.7249425487123955 0.3401058212472624 0.0
    vertex 0.9571150562116829 0.19661532035941337 0.0
  endloop
endfacet
facet normal -0.5257311121191325 -0.8506508083520407 -0.0
  outer loop
    vertex 0.7249425487123955 0.3401058212472624 0.0
    vertex 0.9571150562116829 0.19661532035941337 46.00000000000001
    vertex 0.7249425487123955 0.3401058212472624 46.00000000000001
  endloop
endfacet
facet normal -0.6504096051773637 -0.7595836658940384 -0.0
  outer loop
    vertex 0.7249425487123955 0.3401058212472624 46.00000000000001
    vertex 0.5176254655631181 0.5176254655631191 0.0
    vertex 0.7249425487123955 0.3401058212472624 0.0
  endloop
endfacet
facet normal -0.6504096051773637 -0.7595836658940384 -0.0
  outer loop
    vertex 0.5176254655631181 0.5176254655631191 0.0
    vertex 0.7249425487123955 0.3401058212472624 46.00000000000001
    vertex 0.5176254655631181 0.5176254655631191 46.00000000000001
  endloop
endfacet
facet normal -0.7595836658940399 -0.6504096051773619 -0.0
  outer loop
    vertex 0.340105821247262 0.7249425487123967 46.00000000000001
    vertex 0.5176254655631181 0.5176254655631191 0.0
    vertex 0.5176254655631181 0.5176254655631191 46.00000000000001
  endloop
endfacet
facet normal -0.7595836658940399 -0.6504096051773619 -0.0
  outer loop
    vertex 0.5176254655631181 0.5176254655631191 0.0
    vertex 0.340105821247262 0.7249425487123967 46.00000000000001
    vertex 0.340105821247262 0.7249425487123967 0.0
  endloop
endfacet
facet normal -0.8506508083520401 -0.5257311121191337 -0.0
  outer loop
    vertex 0.19661532035941248 0.9571150562116844 46.00000000000001
    vertex 0.340105821247262 0.7249425487123967 0.0
    vertex 0.340105821247262 0.7249425487123967 46.00000000000001
  endloop
endfacet
facet normal -0.8506508083520401 -0.5257311121191337 -0.0
  outer loop
    vertex 0.340105821247262 0.7249425487123967 0.0
    vertex 0.19661532035941248 0.9571150562116844 46.00000000000001
    vertex 0.19661532035941248 0.9571150562116844 0.0
  endloop
endfacet
facet normal -0.9214401784656653 -0.3885202665359467 -0.0
  outer loop
    vertex 0.09057448243827629 1.208608471188172 46.00000000000001
    vertex 0.19661532035941248 0.9571150562116844 0.0
    vertex 0.19661532035941248 0.9571150562116844 46.00000000000001
  endloop
endfacet
facet normal -0.9214401784656653 -0.3885202665359467 -0.0
  outer loop
    vertex 0.19661532035941248 0.9571150562116844 0.0
    vertex 0.09057448243827629 1.208608471188172 46.00000000000001
    vertex 0.09057448243827629 1.208608471188172 0.0
  endloop
endfacet
endsolid Untitled-56091793
