M48
INCH
T01C0.0150
T02C0.1181
T03C0.0400
%
T01
X-001500Y-000250
X+000250Y+001000
X+002750Y+000500
X+000750Y-001000
X+005000Y-000750
X+001750Y+001000
X+002500Y+002500
X+004000Y+002750
X+003000Y+002750
X-005815Y+000580
X+004500Y+002250
T02
X+006968Y-007992
X-007204Y-007992
X+006968Y+007755
X-007204Y+007755
X-007204Y+007755
X+006968Y+007755
X-007204Y-007992
X+006968Y-007992
T03
X-003503Y-004685
X-002503Y-004685
X-001503Y-004685
X-000503Y-004685
X+000496Y-004685
X+001496Y-004685
X+002496Y-004685
X+003496Y-004685
X+003496Y+004763
X+002496Y+004763
X+001496Y+004763
X+000496Y+004763
X-000503Y+004763
X-001503Y+004763
X-002503Y+004763
X-003503Y+004763
M30
