M48
INCH
T01C0.0120
T02C0.1181
T03C0.0150
T04C0.0314
T05C0.0393
T06C0.0400
%
T01
X-004483Y+003092
X-006045Y+002377
X+003188Y-007716
X-006316Y-002994
X-005914Y+004069
X-003384Y-007272
X-004021Y-002666
X+006306Y+002803
X+005500Y-006750
X-002500Y+004000
X+000000Y-008750
X+004750Y+005750
X-005000Y-002000
X-007500Y-003500
X-001750Y-008000
X+002000Y-008750
X+004250Y-005250
X+002952Y-004724
X+001317Y-002323
X+002958Y-003363
X+003058Y+005537
X-004881Y+005472
X+001500Y-007500
X-000500Y-004500
X-000500Y-003500
X+000186Y-000563
X-006063Y+005282
X-000189Y+002826
X-005625Y+005276
X+000190Y-000180
X+000155Y+001756
X+006072Y-005903
X+004976Y-004495
X+001750Y-003750
X+000000Y-004750
X+000000Y-008346
X-001854Y+005081
X-001338Y+004566
X-002023Y+003993
X-002023Y+003143
X-007217Y+002689
X-004723Y+004486
X+001051Y-004289
X+005293Y-007047
X-002284Y+004489
X+005393Y-005275
X+003976Y-006299
X-001500Y-001750
X-004648Y+006259
X+002640Y+006890
X+006102Y-005429
X+005905Y-002893
X-003298Y+002762
X-005000Y+000250
X-007654Y-006596
X-007000Y+004500
X-003688Y-007326
X-003539Y-007751
X-000107Y+006662
X-000107Y+005042
X+002525Y+003736
X+000275Y+003720
X+000393Y+003428
X+000172Y+006483
X+000215Y+004984
X+001399Y+004078
X+000397Y+004213
X-002719Y-003443
X-007244Y-005767
X-008100Y-002112
X-001434Y+003043
X-005958Y+001412
X-006653Y+001417
X-004094Y+008188
X-003101Y+002376
X-005958Y+001892
X-006614Y+001889
X-004366Y+007263
X-005787Y+006437
X-006896Y+006494
X-005403Y-006039
X-004627Y-005937
X-004682Y-004655
X-003660Y-004950
X-003543Y-002637
X-002085Y-003386
X-003188Y-004468
X-004251Y-004468
X-002000Y+000250
X-001250Y-003250
X+000250Y-005250
X+001110Y-001300
X+000151Y-001837
X+005825Y-001954
X-003942Y-006439
X-007243Y-005207
X-003130Y-004900
X-001440Y-004390
X+000127Y-004022
X+000430Y-003660
X+001092Y-003036
X+003764Y-005599
X-002178Y-002210
X-002283Y-002736
X-003189Y-006742
X-006382Y-007088
X+005500Y+005750
T02
X+007086Y-007874
X-007086Y-007874
X+007086Y+007874
X-007086Y+007874
X-007086Y+007874
X+007086Y+007874
X-007086Y-007874
X+007086Y-007874
T03
X+006062Y-007047
T04
X+006535Y-006338
X+006535Y-004586
T05
X+007677Y-001476
X+007677Y-002657
T06
X+004150Y-000120
X+003150Y-000120
M30
